<svg version="1.0" xmlns="http://www.w3.org/2000/svg" width="512.000000pt" height="512.000000pt" viewBox="0 0 512.000000 512.000000" preserveAspectRatio="xMidYMid meet">

<g transform="translate(0.000000,512.000000) scale(0.100000,-0.100000)" fill="#ffffff" stroke="none">
<path d="M2483 4650 c-257 -36 -484 -158 -613 -328 -39 -51 -59 -66 -148 -112 -438 -227 -701 -561 -738 -938 -6 -57 -12 -74 -44 -112 -89 -109 -186 -282 -245 -440 -18 -47 -47 -97 -77 -133 -164 -198 -219 -331 -243 -590 -18 -192 -20 -199 -172 -429 -123 -186 -203 -333 -203 -373 0 -50 32 -181 62 -253 42 -101 114 -178 210 -225 67 -32 217 -77 260 -77 10 0 69 -25 131 -55 61 -30 154 -66 206 -79 236 -63 531 -58 812 14 68 17 88 18 195 9 116 -11 306 -5 392 11 107 19 134 131 45 183 -29 17 -41 17 -155 7 -92 -9 -160 -9 -273 0 -146 11 -152 11 -245 -13 -152 -40 -244 -51 -415 -51 -219 0 -333 26 -500 114 -64 33 -111 50 -161 58 -158 26 -265 77 -300 143 -15 30 -15 32 2 24 41 -17 157 -44 235 -56 104 -15 389 -6 475 15 34 8 115 31 180 51 155 47 214 52 371 30 244 -34 537 -4 861 89 271 78 332 88 567 91 256 4 289 11 552 127 149 65 289 115 423 152 l90 25 -20 -29 c-26 -37 -101 -102 -170 -150 -75 -51 -518 -272 -655 -327 -60 -24 -118 -53 -127 -64 -29 -34 -24 -95 11 -130 41 -40 77 -38 208 15 143 57 579 276 668 335 136 90 264 228 331 358 29 55 46 74 106 116 147 103 274 262 350 438 21 49 38 94 38 101 0 6 34 47 76 90 263 275 354 630 223 868 -30 54 -31 57 -30 190 2 107 -2 152 -19 215 -25 100 -83 222 -143 301 -98 129 -270 270 -426 349 -29 14 -81 50 -116 79 -202 172 -453 283 -745 331 -135 22 -357 30 -475 17 -81 -9 -115 -9 -180 3 -98 19 -357 27 -442 15z m422 -215 c69 -13 100 -14 223 -3 409 34 812 -79 1067 -301 39 -33 102 -77 140 -97 265 -138 432 -322 481 -531 12 -52 14 -95 9 -183 -3 -63 -6 -127 -7 -142 -1 -15 16 -51 40 -87 55 -83 69 -149 54 -252 -22 -151 -102 -296 -248 -449 -64 -67 -77 -87 -104 -161 -46 -129 -111 -232 -204 -325 -105 -105 -151 -131 -284 -159 -241 -51 -386 -98 -647 -210 -93 -40 -180 -76 -192 -79 -13 -3 -33 -9 -45 -12 -13 -3 10 17 50 45 114 79 216 165 351 296 147 143 409 424 468 504 134 177 196 434 173 716 -13 155 -44 328 -75 417 -127 363 -472 573 -1027 628 -188 19 -624 8 -793 -19 -390 -63 -714 -193 -965 -387 -78 -60 -78 -58 -14 27 102 134 278 268 495 379 105 53 120 65 149 110 68 107 198 202 340 250 148 51 381 61 565 25z m320 -599 c416 -67 664 -231 745 -494 53 -171 76 -506 44 -660 -19 -97 -76 -220 -134 -293 -79 -99 -396 -431 -502 -526 -253 -227 -477 -365 -720 -441 -496 -156 -823 -212 -1058 -182 -52 7 -121 15 -153 19 l-58 6 51 75 c29 41 68 92 88 112 47 50 158 106 328 168 419 153 546 274 570 542 18 202 -74 457 -207 572 -232 202 -621 122 -984 -204 -53 -48 -107 -85 -160 -111 -156 -74 -311 -191 -426 -320 -35 -39 -65 -66 -67 -59 -2 6 1 39 7 73 18 92 90 228 177 336 62 75 84 112 114 191 72 184 138 301 237 416 32 38 74 96 93 129 52 88 245 278 360 354 269 177 571 273 995 315 101 10 564 -3 660 -18z m-1221 -1207 c117 -32 218 -222 219 -409 0 -208 -61 -268 -413 -400 -349 -132 -405 -172 -572 -417 -81 -120 -128 -165 -212 -204 -178 -83 -530 -77 -738 13 -27 11 -48 25 -48 30 0 14 59 111 150 248 43 63 97 147 122 185 156 245 406 458 669 571 62 26 99 50 151 100 241 227 492 333 672 283z" fill="#ffffff"/>
<path d="M2610 3543 c-149 -12 -353 -68 -390 -108 -38 -40 -34 -99 8 -136 37 -33 69 -36 133 -13 59 21 230 54 280 54 51 0 95 23 114 60 19 37 19 53 -1 91 -14 27 -70 62 -91 57 -4 -1 -28 -3 -53 -5z" fill="#ffffff"/>
<path d="M3064 3441 c-35 -15 -64 -60 -64 -99 0 -29 8 -42 41 -71 126 -111 169 -157 203 -215 39 -66 66 -86 117 -86 46 0 89 47 89 97 0 104 -228 360 -337 378 -15 2 -38 0 -49 -4z" fill="#ffffff"/>
<path d="M3313 2706 c-17 -14 -35 -44 -42 -68 -16 -52 -79 -178 -117 -233 -15 -22 -38 -55 -51 -74 -30 -43 -29 -83 1 -118 21 -24 32 -28 76 -28 50 0 54 2 99 51 89 98 211 357 195 419 -3 14 -20 36 -36 50 -39 33 -87 33 -125 1z" fill="#ffffff"/>
<path d="M2673 863 c-35 -7 -73 -59 -73 -100 0 -80 109 -125 165 -69 73 73 10 188 -92 169z" fill="#ffffff"/>
</g>
</svg>