<?xml version="1.0" encoding="UTF-8" standalone="no" ?>
<!DOCTYPE svg PUBLIC "-//W3C//DTD SVG 1.1//EN" "http://www.w3.org/Graphics/SVG/1.1/DTD/svg11.dtd">
<svg xmlns="http://www.w3.org/2000/svg" xmlns:xlink="http://www.w3.org/1999/xlink" version="1.1" width="1080" height="1080" viewBox="0 0 1080 1080" xml:space="preserve">
<desc>Created with Fabric.js 5.2.4</desc>
<defs>
</defs>
<g transform="matrix(1 0 0 1 540 540)" id="f7305eb9-14ab-481f-a7e4-95c230eac357"  >
<rect style="stroke: none; stroke-width: 1; stroke-dasharray: none; stroke-linecap: butt; stroke-dashoffset: 0; stroke-linejoin: miter; stroke-miterlimit: 4; fill: rgb(255,255,255); fill-rule: nonzero; opacity: 1; visibility: hidden;" vector-effect="non-scaling-stroke"  x="-540" y="-540" rx="0" ry="0" width="1080" height="1080" />
</g>
<g transform="matrix(1 0 0 1 540 540)" id="9f5dd94e-3b02-4ad5-8f2b-572a84515f46"  >
</g>
<g transform="matrix(1 0 0 1 540 540)"  >
<g style="" vector-effect="non-scaling-stroke"   >
		<g transform="matrix(0.13 0 0 -0.13 0 0)"  >
<path style="stroke: none; stroke-width: 1; stroke-dasharray: none; stroke-linecap: butt; stroke-dashoffset: 0; stroke-linejoin: miter; stroke-miterlimit: 4; fill: rgb(255,255,255); fill-rule: nonzero; opacity: 1;" vector-effect="non-scaling-stroke"  transform=" translate(-2559.16, -2558.9)" d="M 2483 4650 C 2226 4614 1999 4492 1870 4322 C 1831 4271 1811 4256 1722 4210 C 1284 3983 1021 3649 984 3272 C 978 3215 972 3198 940 3160 C 851 3051 754 2878 695 2720 C 677 2673 648 2623 618 2587 C 454 2389 399 2256 375 1997 C 357 1805 355 1798 203 1568 C 80 1382 0 1235 0 1195 C 0 1145 32 1014 62 942 C 104 841 176 764 272 717 C 339 685 489 640 532 640 C 542 640 601 615 663 585 C 724 555 817 519 869 506 C 1105 443 1400 448 1681 520 C 1749 537 1769 538 1876 529 C 1992 518 2182 524 2268 540 C 2375 559 2402 671 2313 723 C 2284 740 2272 740 2158 730 C 2066 721 1998 721 1885 730 C 1739 741 1733 741 1640 717 C 1488 677 1396 666 1225 666 C 1006 666 892 692 725 780 C 661 813 614 830 564 838 C 406 864 299 915 264 981 C 249 1011 249 1013 266 1005 C 307 988 423 961 501 949 C 605 934 890 943 976 964 C 1010 972 1091 995 1156 1015 C 1311 1062 1370 1067 1527 1045 C 1771 1011 2064 1041 2388 1134 C 2659 1212 2720 1222 2955 1225 C 3211 1229 3244 1236 3507 1352 C 3656 1417 3796 1467 3930 1504 L 4020 1529 L 4000 1500 C 3974 1463 3899 1398 3830 1350 C 3755 1299 3312 1078 3175 1023 C 3115 999 3057 970 3048 959 C 3019 925 3024 864 3059 829 C 3100 789 3136 791 3267 844 C 3410 901 3846 1120 3935 1179 C 4071 1269 4199 1407 4266 1537 C 4295 1592 4312 1611 4372 1653 C 4519 1756 4646 1915 4722 2091 C 4743 2140 4760 2185 4760 2192 C 4760 2198 4794 2239 4836 2282 C 5099 2557 5190 2912 5059 3150 C 5029 3204 5028 3207 5029 3340 C 5031 3447 5027 3492 5010 3555 C 4985 3655 4927 3777 4867 3856 C 4769 3985 4597 4126 4441 4205 C 4412 4219 4360 4255 4325 4284 C 4123 4456 3872 4567 3580 4615 C 3445 4637 3223 4645 3105 4632 C 3024 4623 2990 4623 2925 4635 C 2827 4654 2568 4662 2483 4650 z M 2905 4435 C 2974 4422 3005 4421 3128 4432 C 3537 4466 3940 4353 4195 4131 C 4234 4098 4297 4054 4335 4034 C 4600 3896 4767 3712 4816 3503 C 4828 3451 4830 3408 4825 3320 C 4822 3257 4819 3193 4818 3178 C 4817 3163 4834 3127 4858 3091 C 4913 3008 4927 2942 4912 2839 C 4890 2688 4810 2543 4664 2390 C 4600 2323 4587 2303 4560 2229 C 4514 2100 4449 1997 4356 1904 C 4251 1799 4205 1773 4072 1745 C 3831 1694 3686 1647 3425 1535 C 3332 1495 3245 1459 3233 1456 C 3220 1453 3200 1447 3188 1444 C 3175 1441 3198 1461 3238 1489 C 3352 1568 3454 1654 3589 1785 C 3736 1928 3998 2209 4057 2289 C 4191 2466 4253 2723 4230 3005 C 4217 3160 4186 3333 4155 3422 C 4028 3785 3683 3995 3128 4050 C 2940 4069 2504 4058 2335 4031 C 1945 3968 1621 3838 1370 3644 C 1292 3584 1292 3586 1356 3671 C 1458 3805 1634 3939 1851 4050 C 1956 4103 1971 4115 2000 4160 C 2068 4267 2198 4362 2340 4410 C 2488 4461 2721 4471 2905 4435 z M 3225 3836 C 3641 3769 3889 3605 3970 3342 C 4023 3171 4046 2836 4014 2682 C 3995 2585 3938 2462 3880 2389 C 3801 2290 3484 1958 3378 1863 C 3125 1636 2901 1498 2658 1422 C 2162 1266 1835 1210 1600 1240 C 1548 1247 1479 1255 1447 1259 L 1389 1265 L 1440 1340 C 1469 1381 1508 1432 1528 1452 C 1575 1502 1686 1558 1856 1620 C 2275 1773 2402 1894 2426 2162 C 2444 2364 2352 2619 2219 2734 C 1987 2936 1598 2856 1235 2530 C 1182 2482 1128 2445 1075 2419 C 919 2345 764 2228 649 2099 C 614 2060 584 2033 582 2040 C 580 2046 583 2079 589 2113 C 607 2205 679 2341 766 2449 C 828 2524 850 2561 880 2640 C 952 2824 1018 2941 1117 3056 C 1149 3094 1191 3152 1210 3185 C 1262 3273 1455 3463 1570 3539 C 1839 3716 2141 3812 2565 3854 C 2666 3864 3129 3851 3225 3836 z M 2004 2629 C 2121 2597 2222 2407 2223 2220 C 2223 2012 2162 1952 1810 1820 C 1461 1688 1405 1648 1238 1403 C 1157 1283 1110 1238 1026 1199 C 848 1116 496 1122 288 1212 C 261 1223 240 1237 240 1242 C 240 1256 299 1353 390 1490 C 433 1553 487 1637 512 1675 C 668 1920 918 2133 1181 2246 C 1243 2272 1280 2296 1332 2346 C 1573 2573 1824 2679 2004 2629 z" stroke-linecap="round" />
</g>
		<g transform="matrix(0.13 0 0 -0.13 -10.36 -113.45)"  >
<path style="stroke: none; stroke-width: 1; stroke-dasharray: none; stroke-linecap: butt; stroke-dashoffset: 0; stroke-linejoin: miter; stroke-miterlimit: 4; fill: rgb(255,255,255); fill-rule: nonzero; opacity: 1;" vector-effect="non-scaling-stroke"  transform=" translate(-2481.48, -3409.78)" d="M 2610 3543 C 2461 3531 2257 3475 2220 3435 C 2182 3395 2186 3336 2228 3299 C 2265 3266 2297 3263 2361 3286 C 2420 3307 2591 3340 2641 3340 C 2692 3340 2736 3363 2755 3400 C 2774 3437 2774 3453 2754 3491 C 2740 3518 2684 3553 2663 3548 C 2659 3547 2635 3545 2610 3543 z" stroke-linecap="round" />
</g>
		<g transform="matrix(0.13 0 0 -0.13 88.78 -86.53)"  >
<path style="stroke: none; stroke-width: 1; stroke-dasharray: none; stroke-linecap: butt; stroke-dashoffset: 0; stroke-linejoin: miter; stroke-miterlimit: 4; fill: rgb(255,255,255); fill-rule: nonzero; opacity: 1;" vector-effect="non-scaling-stroke"  transform=" translate(-3225, -3207.89)" d="M 3064 3441 C 3029 3426 3000 3381 3000 3342 C 3000 3313 3008 3300 3041 3271 C 3167 3160 3210 3114 3244 3056 C 3283 2990 3310 2970 3361 2970 C 3407 2970 3450 3017 3450 3067 C 3450 3171 3222 3427 3113 3445 C 3098 3447 3075 3445 3064 3441 z" stroke-linecap="round" />
</g>
		<g transform="matrix(0.13 0 0 -0.13 95.87 13.53)"  >
<path style="stroke: none; stroke-width: 1; stroke-dasharray: none; stroke-linecap: butt; stroke-dashoffset: 0; stroke-linejoin: miter; stroke-miterlimit: 4; fill: rgb(255,255,255); fill-rule: nonzero; opacity: 1;" vector-effect="non-scaling-stroke"  transform=" translate(-3278.21, -2457.44)" d="M 3313 2706 C 3296 2692 3278 2662 3271 2638 C 3255 2586 3192 2460 3154 2405 C 3139 2383 3116 2350 3103 2331 C 3073 2288 3074 2248 3104 2213 C 3125 2189 3136 2185 3180 2185 C 3230 2185 3234 2187 3279 2236 C 3368 2334 3490 2593 3474 2655 C 3471 2669 3454 2691 3438 2705 C 3399 2738 3351 2738 3313 2706 z" stroke-linecap="round" />
</g>
		<g transform="matrix(0.13 0 0 -0.13 18.55 238.91)"  >
<path style="stroke: none; stroke-width: 1; stroke-dasharray: none; stroke-linecap: butt; stroke-dashoffset: 0; stroke-linejoin: miter; stroke-miterlimit: 4; fill: rgb(255,255,255); fill-rule: nonzero; opacity: 1;" vector-effect="non-scaling-stroke"  transform=" translate(-2698.3, -767.08)" d="M 2673 863 C 2638 856 2600 804 2600 763 C 2600 683 2709 638 2765 694 C 2838 767 2775 882 2673 863 z" stroke-linecap="round" />
</g>
</g>
</g>
<g transform="matrix(1.88 0 0 3.36 894.64 540)" style="" id="923050b4-c483-42a5-80c0-89181ff3fa5e"  >
		<text xml:space="preserve" font-family="Lato" font-size="200" font-style="normal" font-weight="400" style="stroke: none; stroke-width: 1; stroke-dasharray: none; stroke-linecap: butt; stroke-dashoffset: 0; stroke-linejoin: miter; stroke-miterlimit: 4; fill: rgb(255,255,255); fill-rule: nonzero; opacity: 1; white-space: pre;" ><tspan x="-79.8" y="62.83" >O</tspan></text>
</g>
</svg>