<svg version="1.0" xmlns="http://www.w3.org/2000/svg" width="704.000000pt" height="16.000000pt" viewBox="0 0 704.000000 16.000000" preserveAspectRatio="xMidYMid meet" transform="matrix(1, 0, 0, -1, 0, 0)">

<g transform="translate(0.000000,16.000000) scale(0.100000,-0.100000)" fill="#cac9c7" stroke="none">
<path d="M236 123 c-18 -21 -47 -54 -64 -73 l-31 -35 -33 40 c-99 120 -109 121 -106 12 l2 -72 3 68 c2 37 8 67 12 67 5 0 31 -27 58 -60 26 -33 56 -60 65 -60 9 0 41 29 70 65 29 36 60 65 69 65 8 0 39 -29 67 -65 29 -36 59 -65 67 -65 7 0 38 29 67 65 29 36 60 65 69 65 8 0 39 -29 67 -65 29 -36 59 -65 67 -65 7 0 38 29 67 65 29 36 60 65 69 65 8 0 39 -29 67 -65 29 -36 59 -65 67 -65 7 0 38 29 67 65 29 36 60 65 69 65 8 0 39 -29 67 -65 29 -36 59 -65 67 -65 7 0 38 29 67 65 29 36 60 65 69 65 8 0 39 -29 67 -65 29 -36 59 -65 67 -65 7 0 38 29 67 65 29 36 60 65 69 65 8 0 39 -29 67 -65 29 -36 59 -65 67 -65 7 0 38 29 67 65 29 36 60 65 69 65 8 0 39 -29 67 -65 29 -36 59 -65 67 -65 7 0 38 29 67 65 29 36 60 65 69 65 8 0 39 -29 67 -65 29 -36 59 -65 67 -65 7 0 38 29 67 65 29 36 60 65 69 65 8 0 39 -29 67 -65 29 -36 59 -65 67 -65 7 0 38 29 67 65 29 36 60 65 69 65 8 0 39 -29 67 -65 29 -36 59 -65 67 -65 7 0 38 29 67 65 29 36 60 65 69 65 8 0 39 -29 67 -65 29 -36 59 -65 67 -65 7 0 38 29 67 65 29 36 60 65 69 65 8 0 39 -29 67 -65 29 -36 59 -65 67 -65 7 0 38 29 67 65 29 36 60 65 69 65 8 0 39 -29 67 -65 29 -36 59 -65 67 -65 7 0 38 29 67 65 29 36 60 65 69 65 8 0 39 -29 67 -65 29 -36 59 -65 67 -65 7 0 38 29 67 65 29 36 60 65 69 65 8 0 39 -29 67 -65 29 -36 59 -65 67 -65 7 0 38 29 67 65 29 36 60 65 69 65 8 0 39 -29 67 -65 29 -36 59 -65 67 -65 7 0 38 29 67 65 29 36 60 65 69 65 8 0 39 -29 67 -65 29 -36 59 -65 67 -65 7 0 38 29 67 65 29 36 60 65 69 65 8 0 39 -29 67 -65 29 -36 59 -65 67 -65 7 0 38 29 67 65 29 36 60 65 69 65 8 0 39 -29 67 -65 29 -36 59 -65 67 -65 7 0 38 29 67 65 29 36 60 65 69 65 8 0 39 -29 67 -65 29 -36 59 -65 67 -65 7 0 38 29 67 65 29 36 60 65 69 65 8 0 39 -29 67 -65 29 -36 59 -65 67 -65 7 0 38 29 67 65 29 36 60 65 69 65 8 0 39 -29 67 -65 29 -36 59 -65 67 -65 7 0 38 29 67 65 29 36 60 65 69 65 8 0 39 -29 67 -65 29 -36 59 -65 67 -65 7 0 38 29 67 65 29 36 60 65 69 65 8 0 39 -29 67 -65 29 -36 59 -65 67 -65 7 0 38 29 67 65 29 36 60 65 69 65 8 0 39 -29 67 -65 29 -36 60 -65 70 -65 9 0 39 27 65 60 27 33 53 60 58 60 4 0 10 -30 12 -67 l3 -68 2 72 c3 109 -7 108 -106 -12 l-33 -40 -27 31 c-15 17 -43 50 -63 72 -20 23 -42 42 -48 42 -7 0 -27 -17 -45 -37 -18 -21 -47 -53 -63 -72 l-30 -34 -53 66 c-77 97 -79 97 -161 -2 l-53 -64 -25 30 c-84 97 -99 113 -110 113 -7 0 -27 -17 -45 -38 -18 -20 -47 -52 -63 -71 l-30 -34 -53 66 c-77 97 -79 97 -161 -2 l-53 -64 -25 30 c-84 97 -99 113 -110 113 -7 0 -27 -17 -45 -37 -18 -21 -47 -53 -63 -72 l-30 -34 -53 66 c-77 97 -79 97 -161 -2 l-53 -64 -25 30 c-84 97 -99 113 -110 113 -7 0 -27 -17 -45 -37 -18 -21 -47 -53 -63 -72 l-30 -34 -53 66 c-77 97 -79 97 -161 -2 l-53 -64 -25 30 c-84 97 -99 113 -110 113 -7 0 -27 -17 -45 -37 -18 -21 -47 -53 -63 -72 l-30 -34 -53 66 c-77 97 -79 97 -161 -2 l-53 -64 -25 30 c-84 97 -99 113 -110 113 -7 0 -27 -17 -45 -37 -18 -21 -47 -53 -63 -72 l-30 -34 -53 66 c-77 97 -79 97 -161 -2 l-53 -64 -25 30 c-84 97 -99 113 -110 113 -7 0 -27 -17 -45 -38 -18 -20 -47 -52 -63 -71 l-30 -34 -53 66 c-77 97 -79 97 -161 -2 l-53 -64 -25 30 c-84 97 -99 113 -110 113 -7 0 -27 -17 -45 -37 -18 -21 -47 -53 -63 -72 l-30 -34 -53 66 c-77 97 -79 97 -161 -2 l-53 -64 -25 30 c-84 97 -99 113 -110 113 -7 0 -27 -17 -45 -37 -18 -21 -47 -53 -63 -72 l-30 -34 -53 66 c-77 97 -79 97 -161 -2 l-53 -64 -25 30 c-84 97 -99 113 -110 113 -7 0 -27 -17 -45 -38 -18 -20 -47 -52 -63 -71 l-30 -34 -53 66 c-77 97 -79 97 -161 -2 l-53 -64 -25 30 c-84 97 -99 113 -110 113 -7 0 -27 -17 -45 -37 -18 -21 -47 -53 -63 -72 l-30 -34 -53 66 c-77 97 -79 97 -161 -2 l-53 -64 -25 30 c-84 97 -99 113 -110 113 -7 0 -27 -17 -45 -38 -18 -20 -47 -52 -63 -71 l-30 -34 -53 66 c-77 97 -79 97 -161 -2 l-53 -64 -25 30 c-84 97 -99 113 -110 113 -7 0 -27 -17 -45 -37z" fill="#cac9c7"/>
</g>
</svg>